  <svg
        xmlns="http://www.w3.org/2000/svg"
        viewBox="0 0 37.42 52"
        className="w-full h-auto max-w-[8rem] text-[currentColor]"
        aria-label="Food Court Icon"
      >
        <path
          fill="currentColor"
          d="M40.93,21.45H32.86l.11.33a4.18,4.18,0,0,0,7.85,0Z"
          transform="translate(-13.29 -6)"
        />
        <polygon
          fill="currentColor"
          points="37.19 13.9 32.35 0 26.69 0 29.14 13.9 37.19 13.9"
        />
        <polygon
          fill="currentColor"
          points="25.13 0 19.48 0 19.48 13.9 27.57 13.9 25.13 0"
        />
        <path
          fill="currentColor"
          d="M46.67,43.54V25.87a5.61,5.61,0,0,1-1.54-.21V43.54Z"
          transform="translate(-13.29 -6)"
        />
        <path
          fill="currentColor"
          d="M17.33,43.54h1.54V25.66a5.61,5.61,0,0,1-1.54.21Z"
          transform="translate(-13.29 -6)"
        />
        <path
          fill="currentColor"
          d="M39.89,42.66a7.92,7.92,0,0,0-5-6.28,4.8,4.8,0,0,1-5.68,0,7.92,7.92,0,0,0-5.05,6.28l-.12.88H40Z"
          transform="translate(-13.29 -6)"
        />
        <path
          fill="currentColor"
          d="M50.6,21.78l.11-.33H42.64l.11.33a4.18,4.18,0,0,0,7.85,0Z"
          transform="translate(-13.29 -6)"
        />
        <path
          fill="currentColor"
          d="M17.33,24.53a4,4,0,0,0,3.92-2.75l.11-.33H13.29l.11.33A4.06,4.06,0,0,0,17.33,24.53Z"
          transform="translate(-13.29 -6)"
        />
        <polygon
          fill="currentColor"
          points="10.72 0 5.07 0 0.23 13.9 8.28 13.9 10.72 0"
        />
        <polygon
          fill="currentColor"
          points="17.94 13.9 17.94 0 12.29 0 9.85 13.9 17.94 13.9"
        />
        <path
          fill="currentColor"
          d="M28.4,32.48A3.6,3.6,0,1,0,32,28.87,3.6,3.6,0,0,0,28.4,32.48Z"
          transform="translate(-13.29 -6)"
        />
        <path
          fill="currentColor"
          d="M27.11,24.53A4,4,0,0,0,31,21.78l.11-.33H23.07l.11.33A4.06,4.06,0,0,0,27.11,24.53Z"
          transform="translate(-13.29 -6)"
        />
        <path
          fill="currentColor"
          d="M30.16,52.81l.31.23.08.58h2.9l.08-.58.31-.22a4.31,4.31,0,0,0,1.69-3l0-.27H28.45l0,.27A4.27,4.27,0,0,0,30.16,52.81Z"
          transform="translate(-13.29 -6)"
        />
        <path
          fill="currentColor"
          d="M13.32,58H50.68V45.09H13.32Zm23.39-9.53-.16,1.43a5.28,5.28,0,0,1-2.06,3.71l-.15,1H29.66l-.15-1a5.35,5.35,0,0,1-2.06-3.71l-.15-1.43Z"
          transform="translate(-13.29 -6)"
        />
      </svg>