<svg xmlns="http://www.w3.org/2000/svg" id="Layer_1" data-name="Layer 1" viewBox="0 0 512 512"><defs><style>.cls-1{fill:currentColor;}</style></defs><rect class="cls-1" x="281.6" y="290.13" width="25.6" height="17.07"></rect><rect class="cls-1" x="204.8" y="153.6" width="25.6" height="17.07"></rect><rect class="cls-1" x="281.6" y="221.87" width="25.6" height="17.07"></rect><rect class="cls-1" x="204.8" y="221.87" width="25.6" height="17.07"></rect><rect class="cls-1" x="281.6" y="358.4" width="25.6" height="17.07"></rect><rect class="cls-1" x="204.8" y="85.33" width="25.6" height="17.07"></rect><rect class="cls-1" x="204.8" y="358.4" width="25.6" height="17.07"></rect><rect class="cls-1" x="281.6" y="85.33" width="25.6" height="17.07"></rect><rect class="cls-1" x="204.8" y="290.13" width="25.6" height="17.07"></rect><rect class="cls-1" x="281.6" y="153.6" width="25.6" height="17.07"></rect><rect class="cls-1" x="426.67" y="238.93" width="25.6" height="17.07"></rect><rect class="cls-1" x="426.67" y="375.47" width="25.6" height="17.07"></rect><rect class="cls-1" x="426.67" y="307.2" width="25.6" height="17.07"></rect><rect class="cls-1" x="59.73" y="307.2" width="25.6" height="17.07"></rect><rect class="cls-1" x="59.73" y="238.93" width="25.6" height="17.07"></rect><rect class="cls-1" x="59.73" y="375.47" width="25.6" height="17.07"></rect><rect class="cls-1" x="59.73" y="170.67" width="25.6" height="17.07"></rect><path class="cls-1" d="M512,179.2V145.07c0-5.12-3.41-8.54-8.53-8.54h-128c-5.12,0-8.54,3.42-8.54,8.54V179.2c0,5.12,3.42,8.53,8.54,8.53v256H358.4V51.2c5.12,0,8.53-3.41,8.53-8.53V8.53c0-5.12-3.41-8.53-8.53-8.53H153.6c-5.12,0-8.53,3.41-8.53,8.53V42.67c0,5.12,3.41,8.53,8.53,8.53V443.73H136.53V119.47c5.12,0,8.54-3.42,8.54-8.54V76.8c0-5.12-3.42-8.53-8.54-8.53H8.53C3.41,68.27,0,71.68,0,76.8v34.13c0,5.12,3.41,8.54,8.53,8.54V443.73c-5.12,0-8.53,3.42-8.53,8.54v51.2C0,508.59,3.41,512,8.53,512H503.47c5.12,0,8.53-3.41,8.53-8.53v-51.2c0-5.12-3.41-8.54-8.53-8.54v-256C508.59,187.73,512,184.32,512,179.2ZM102.4,401.07c0,5.12-3.41,8.53-8.53,8.53H51.2c-5.12,0-8.53-3.41-8.53-8.53V366.93c0-5.12,3.41-8.53,8.53-8.53H93.87c5.12,0,8.53,3.41,8.53,8.53Zm0-68.27c0,5.12-3.41,8.53-8.53,8.53H51.2c-5.12,0-8.53-3.41-8.53-8.53V298.67c0-5.12,3.41-8.54,8.53-8.54H93.87c5.12,0,8.53,3.42,8.53,8.54Zm0-68.27c0,5.12-3.41,8.54-8.53,8.54H51.2c-5.12,0-8.53-3.42-8.53-8.54V230.4c0-5.12,3.41-8.53,8.53-8.53H93.87c5.12,0,8.53,3.41,8.53,8.53Zm0-68.26c0,5.12-3.41,8.53-8.53,8.53H51.2c-5.12,0-8.53-3.41-8.53-8.53V162.13c0-5.12,3.41-8.53,8.53-8.53H93.87c5.12,0,8.53,3.41,8.53,8.53ZM128,102.4H17.07V85.33H128ZM247.47,384c0,5.12-3.42,8.53-8.54,8.53H196.27c-5.12,0-8.54-3.41-8.54-8.53V349.87c0-5.12,3.42-8.54,8.54-8.54h42.66c5.12,0,8.54,3.42,8.54,8.54Zm0-68.27c0,5.12-3.42,8.54-8.54,8.54H196.27c-5.12,0-8.54-3.42-8.54-8.54V281.6c0-5.12,3.42-8.53,8.54-8.53h42.66c5.12,0,8.54,3.41,8.54,8.53Zm0-68.26c0,5.12-3.42,8.53-8.54,8.53H196.27c-5.12,0-8.54-3.41-8.54-8.53V213.33c0-5.12,3.42-8.53,8.54-8.53h42.66c5.12,0,8.54,3.41,8.54,8.53Zm0-68.27c0,5.12-3.42,8.53-8.54,8.53H196.27c-5.12,0-8.54-3.41-8.54-8.53V145.07c0-5.12,3.42-8.54,8.54-8.54h42.66c5.12,0,8.54,3.42,8.54,8.54Zm0-68.27c0,5.12-3.42,8.54-8.54,8.54H196.27c-5.12,0-8.54-3.42-8.54-8.54V76.8c0-5.12,3.42-8.53,8.54-8.53h42.66c5.12,0,8.54,3.41,8.54,8.53ZM324.27,384c0,5.12-3.42,8.53-8.54,8.53H273.07c-5.12,0-8.54-3.41-8.54-8.53V349.87c0-5.12,3.42-8.54,8.54-8.54h42.66c5.12,0,8.54,3.42,8.54,8.54Zm0-68.27c0,5.12-3.42,8.54-8.54,8.54H273.07c-5.12,0-8.54-3.42-8.54-8.54V281.6c0-5.12,3.42-8.53,8.54-8.53h42.66c5.12,0,8.54,3.41,8.54,8.53Zm0-68.26c0,5.12-3.42,8.53-8.54,8.53H273.07c-5.12,0-8.54-3.41-8.54-8.53V213.33c0-5.12,3.42-8.53,8.54-8.53h42.66c5.12,0,8.54,3.41,8.54,8.53Zm0-68.27c0,5.12-3.42,8.53-8.54,8.53H273.07c-5.12,0-8.54-3.41-8.54-8.53V145.07c0-5.12,3.42-8.54,8.54-8.54h42.66c5.12,0,8.54,3.42,8.54,8.54Zm0-68.27c0,5.12-3.42,8.54-8.54,8.54H273.07c-5.12,0-8.54-3.42-8.54-8.54V76.8c0-5.12,3.42-8.53,8.54-8.53h42.66c5.12,0,8.54,3.41,8.54,8.53Zm25.6-76.8H162.13V17.07H349.87V34.13ZM469.33,401.07c0,5.12-3.41,8.53-8.53,8.53H418.13c-5.12,0-8.53-3.41-8.53-8.53V366.93c0-5.12,3.41-8.53,8.53-8.53H460.8c5.12,0,8.53,3.41,8.53,8.53v34.14Zm0-68.27c0,5.12-3.41,8.53-8.53,8.53H418.13c-5.12,0-8.53-3.41-8.53-8.53V298.67c0-5.12,3.41-8.54,8.53-8.54H460.8c5.12,0,8.53,3.42,8.53,8.54V332.8Zm0-68.27c0,5.12-3.41,8.54-8.53,8.54H418.13c-5.12,0-8.53-3.42-8.53-8.54V230.4c0-5.12,3.41-8.53,8.53-8.53H460.8c5.12,0,8.53,3.41,8.53,8.53v34.13Zm25.6-93.86H384V153.6H494.93v17.07Z" transform="translate(0 0)"></path></svg>