<svg xmlns="http://www.w3.org/2000/svg" id="Layer_1" data-name="Layer 1" viewBox="0 0 64 65.98">
<path fill="#81422c" d="M67.14,67A10,10,0,0,1,59,59.93l-1.22-4.17a12,12,0,0,0-8.61-8.26L48,47.22V25h2a1,1,0,0,0,1-1,1,1,0,0,0-.2-.59l-15-20a1,1,0,0,0-1.47-.13l-.13.13-15,20A1,1,0,0,0,20,25h2V47H17a1,1,0,0,0-1,1v5H11a1,1,0,0,0-1,1v5H5a1,1,0,0,0-1,1v8a1,1,0,0,0,1,1H23a1,1,0,0,0,1-1V49H46V67H45a1,1,0,0,0,0,2h8a1,1,0,0,0,0-2H48V49.28l.65.16a10,10,0,0,1,7.17,6.88l1.23,4.18A12,12,0,0,0,66.86,69H67a1,1,0,0,0,.14-2ZM35,44a4,4,0,1,1,4-4,4,4,0,0,1-4,4ZM46,31H24V25H46Z" transform="translate(-4 -3.02)"></path>
<circle fill="#81422c" cx="31" cy="36.98" r="2"></circle><path fill="#81422c" d="M35,67H26a1,1,0,0,0,0,2h9a1,1,0,0,0,0-2Z" transform="translate(-4 -3.02)"></path><path fill="#81422c" d="M42,67H39a1,1,0,0,0,0,2h3a1,1,0,0,0,0-2Z" transform="translate(-4 -3.02)"></path>
<path fill="#81422c" d="M58,67H56a1,1,0,0,0,0,2h2a1,1,0,0,0,0-2Z" transform="translate(-4 -3.02)"></path></svg>