<svg xmlns="http://www.w3.org/2000/svg" id="Layer_1" data-name="Layer 1" viewBox="0 0 208.43 255.12"><path fill="#81422c" d="M208.89,95.53c-1.76-6.87-6.13-11.18-11.47-11.42q2.21-5,4.4-10.07A190.41,190.41,0,0,0,82,74.31q2,4.91,4,9.8c-5.34.25-9.71,4.55-11.47,11.42s-.63,14,.2,17.66a39.48,39.48,0,0,0,5.55,13.49c1.94,2.94,5.85,7.69,11.25,8.56,10,21.38,29.34,35,50.16,35s40.18-13.62,50.16-35c5.41-.88,9.31-5.62,11.26-8.57a39.57,39.57,0,0,0,5.55-13.48C209.52,109.53,210.65,102.39,208.89,95.53ZM198.62,110.9a29.77,29.77,0,0,1-4.1,10.08c-1.82,2.76-3.68,4-4.48,4h0l-4.49-1.34L183.77,128c-6.28,15.4-20.61,31.87-42,31.87S106,143.44,99.7,128c-.63-1.44-1.25-2.88-1.88-4.33l-4.49,1.34c-.69,0-2.55-1.29-4.39-4.07a29.59,29.59,0,0,1-4.09-10.07,28.8,28.8,0,0,1-.27-12.81c.64-2.48,1.66-3.58,1.91-3.69a2.79,2.79,0,0,1,1.24.56l6.67,4.39c.43-2.63.85-5.25,1.28-7.88.08-.5.16-1,.25-1.49a99.66,99.66,0,0,0,91.59,0c.1.49.18,1,.26,1.49.43,2.63.86,5.25,1.28,7.88L195.73,95a3.21,3.21,0,0,1,1.2-.57c.29.13,1.31,1.22,1.95,3.7A28.74,28.74,0,0,1,198.62,110.9Z" transform="translate(-37.52 -14.17)"></path><path fill="#81422c" d="M221.52,203.18l-38.1-38.1L162.57,269.29h83.37v-7.15A83.36,83.36,0,0,0,221.52,203.18ZM212,233.13a34.46,34.46,0,0,1-22.13,0c-3-1.1-7.54-3.42-7.54-7.48s4.56-6.38,7.53-7.48a34.37,34.37,0,0,1,22.13,0c3,1.09,7.54,3.41,7.54,7.48S215,232,212,233.13Z" transform="translate(-37.52 -14.17)"></path><path fill="#81422c" d="M165.15,133.52v3.82a67.64,67.64,0,0,0-19.89-2.57c-1.65-1.66-2.86-3.17-2.93-5.71-.07,2.54-1.28,4.05-2.93,5.71a67.64,67.64,0,0,0-19.89,2.57v-3.82a5.71,5.71,0,0,1,4.32-5.54l11.58-2.89a27.27,27.27,0,0,1,13.84,0L160.83,128A5.71,5.71,0,0,1,165.15,133.52Z" transform="translate(-37.52 -14.17)"></path><path fill="#81422c" d="M188.64,23.43c6.59,7.37,14.31,11.73,23.25,15.35,2.16.88,4.35,1.67,6.56,2.39,1.16.39,2.33.75,3.5,1.09l.9.26c.56.16-.4.42-.61.62-.47.42-.93.84-1.38,1.27a74.91,74.91,0,0,0-9.15,10.18,52.8,52.8,0,0,0-3.9,6.12c-.54,1-1,2-1.5,3-.18.41-.47,0-.72,0l-.82-.27-1.65-.53q-6.66-2.12-13.45-3.75A201.25,201.25,0,0,0,106,56.83a202.3,202.3,0,0,0-27.19,7c-.46.16-.88.34-1.13-.25s-.41-.94-.63-1.4c-.44-1-.92-1.89-1.44-2.8A51.49,51.49,0,0,0,72,53.75,78.11,78.11,0,0,0,61.76,42.54C75,38.76,86.38,34.21,96,23.44a6.53,6.53,0,0,1,6.2-2.4c13.18,1.34,24.67.22,36.77-5.95a6.52,6.52,0,0,1,6.66,0c12.1,6.17,23.6,7.29,36.78,5.95A6.51,6.51,0,0,1,188.64,23.43Z" transform="translate(-37.52 -14.17)"></path><path fill="#81422c" d="M120.89,269.29h41.69Q155.7,228,148.82,186.75a19.67,19.67,0,0,0,5.5-5.41,11.68,11.68,0,0,0,1.87-4.38,4,4,0,0,0-.26-2.9c-2.21-4-10.72-4.81-14.2-4.81s-12,.79-14.2,4.81a4,4,0,0,0-.25,2.9,11.35,11.35,0,0,0,1.86,4.38,19.81,19.81,0,0,0,5.5,5.41Q127.77,228,120.89,269.29Z" transform="translate(-37.52 -14.17)"></path><path fill="#81422c" d="M100.05,165.07,61.93,203.18a83.4,83.4,0,0,0-24.41,59v7.15h83.37Q110.47,217.18,100.05,165.07Z" transform="translate(-37.52 -14.17)"></path></svg>