<svg xmlns="http://www.w3.org/2000/svg" id="Layer_1" data-name="Layer 1" viewBox="0 0 90 87"><path fill="#81422c" d="M20.1,15A3.31,3.31,0,0,0,19,14.74c-.36,0-.21,0-.81,0h-.62v5.34H18A9.08,9.08,0,0,0,19.5,20a2.24,2.24,0,0,0,1-.45,1.87,1.87,0,0,0,.51-.72,5,5,0,0,0,.16-1.3,5.29,5.29,0,0,0-.33-1.89A1.65,1.65,0,0,0,20.1,15Z" transform="translate(-5 -6.5)"></path><path fill="#81422c" d="M5,6.5v27H32V6.5Zm19.78,13A4,4,0,0,1,23.84,21,5.88,5.88,0,0,1,22,22.29a6.92,6.92,0,0,1-2.58.43H17.56v5.44H13.31V12.1h6.17a9.76,9.76,0,0,1,2.26.22,5.58,5.58,0,0,1,1.63.7,3.73,3.73,0,0,1,1.29,1.42,9.11,9.11,0,0,1,.45,3A6.84,6.84,0,0,1,24.78,19.51Z" transform="translate(-5 -6.5)"></path><path fill="#81422c" d="M88,81.5h6V68.61a10,10,0,0,0-4.19-8.11H91.5a3.5,3.5,0,0,0,0-7H87L84.14,41.37A6.63,6.63,0,0,0,78,36.5H42a6.38,6.38,0,0,0-6,4.9L33.6,53.5H29.5a3.5,3.5,0,0,0,0,7h1.69A10,10,0,0,0,27,68.61V81.5h6v7H21v-50H16v50H5v5H95v-5H88Zm-45.26-38h34.7l2.81,12H40.34ZM38,75.5a5,5,0,1,1,5-5A5,5,0,0,1,38,75.5Zm40,13H43V81.61H78Zm5-13a5,5,0,1,1,5-5A5,5,0,0,1,83,75.5Z" transform="translate(-5 -6.5)"></path></svg>